<?xml version="1.0" standalone="no"?>
<!DOCTYPE svg PUBLIC "-//W3C//DTD SVG 1.1//EN" "http://www.w3.org/Graphics/SVG/1.1/DTD/svg11.dtd">
<svg xmlns="http://www.w3.org/2000/svg" width="2000" height="236" viewBox="0 0 2000 236" fill="none">
<g clip-path="url(#clip0_820_424)">
<path d="M1933.26 0.0723572C1927.98 0.0723572 1923.72 4.33621 1923.72 9.61182V225.442C1923.72 230.718 1927.98 234.982 1933.26 234.982C1938.54 234.982 1942.8 230.718 1942.8 225.442V9.61182C1942.8 4.33621 1938.54 0.0723572 1933.26 0.0723572" fill="#3F47FF"/>
<path d="M1584.49 6.17906C1583.08 2.49336 1579.54 0.0723572 1575.6 0.0723572C1571.66 0.0723572 1568.12 2.49336 1566.71 6.14293L1483.03 221.973C1481.11 226.888 1483.57 232.416 1488.48 234.331C1493.4 236.246 1498.92 233.789 1500.84 228.875L1531.92 148.765C1532.64 146.886 1534.44 145.549 1536.58 145.549H1591.83C1597.1 145.549 1601.37 141.285 1601.37 136.01C1601.37 130.734 1597.1 126.47 1591.83 126.47H1547.85C1545.1 126.47 1542.86 124.23 1542.86 121.484C1542.86 120.869 1542.97 120.327 1543.15 119.785L1570.94 48.131C1571.63 46.2159 1573.47 44.8428 1575.64 44.8428C1577.81 44.8428 1579.61 46.2159 1580.34 48.0949L1650.4 228.911C1651.88 232.705 1655.46 235.018 1659.29 235.018C1660.45 235.018 1661.6 234.801 1662.72 234.367C1667.64 232.452 1670.09 226.924 1668.18 222.01L1584.49 6.17906Z" fill="#3F47FF"/>
<path d="M1870.1 0.252856C1865.58 -0.578234 1861.1 1.91504 1859.44 6.17889L1789.26 187.176C1788.51 188.983 1786.74 190.247 1784.68 190.247C1782.62 190.247 1780.7 188.91 1780.01 186.995L1709.91 6.17889C1708.25 1.91504 1703.77 -0.614369 1699.25 0.252856C1694.74 1.08395 1691.48 5.02259 1691.48 9.64779V225.442C1691.48 230.718 1695.75 234.982 1701.02 234.982C1706.3 234.982 1710.56 230.718 1710.56 225.442V87.3366C1710.56 86.7585 1710.64 86.1803 1710.82 85.7106C1711.5 83.7593 1713.35 82.3501 1715.55 82.3501C1717.75 82.3501 1719.53 83.7232 1720.25 85.6383L1775.79 228.911C1777.2 232.597 1780.74 235.018 1784.68 235.018C1788.61 235.018 1792.16 232.597 1793.56 228.911L1849.07 85.7106C1849.75 83.7593 1851.6 82.3501 1853.8 82.3501C1856.55 82.3501 1858.79 84.5904 1858.79 87.3366V225.442C1858.79 230.718 1863.05 234.982 1868.33 234.982C1873.6 234.982 1877.87 230.718 1877.87 225.442V9.61165C1877.87 5.02259 1874.58 1.08395 1870.06 0.216721" fill="#3F47FF"/>
<path d="M1443.93 0.0723572C1438.65 0.0723572 1434.39 4.33621 1434.39 9.61182V225.442C1434.39 230.718 1438.65 234.982 1443.93 234.982C1449.2 234.982 1453.47 230.718 1453.47 225.442V9.61182C1453.47 4.33621 1449.2 0.0723572 1443.93 0.0723572" fill="#3F47FF"/>
<path d="M1380.8 0.252856C1376.28 -0.578234 1371.8 1.91504 1370.14 6.17889L1299.97 187.176C1299.21 188.983 1297.44 190.247 1295.38 190.247C1293.32 190.247 1291.41 188.91 1290.68 186.995L1220.58 6.17889C1218.92 1.91504 1214.44 -0.614369 1209.92 0.252856C1205.41 1.12008 1202.15 5.02259 1202.15 9.64779V225.442C1202.15 230.718 1206.42 234.982 1211.69 234.982C1216.97 234.982 1221.23 230.718 1221.23 225.442V87.3366C1221.23 86.7585 1221.3 86.1803 1221.49 85.7106C1222.17 83.7593 1224.01 82.3501 1226.22 82.3501C1228.42 82.3501 1230.23 83.7232 1230.92 85.6383L1286.45 228.911C1287.86 232.597 1291.41 235.018 1295.34 235.018C1299.28 235.018 1302.82 232.597 1304.23 228.911L1359.74 85.7106C1360.42 83.7593 1362.26 82.3501 1364.47 82.3501C1367.22 82.3501 1369.46 84.5904 1369.46 87.3366V225.442C1369.46 230.718 1373.72 234.982 1378.99 234.982C1384.27 234.982 1388.53 230.718 1388.53 225.442V9.61165C1388.53 5.02259 1385.25 1.08395 1380.73 0.216721" fill="#3F47FF"/>
<path d="M222.118 107.933C216.842 107.933 212.578 112.197 212.578 117.473C212.578 122.748 216.842 127.012 222.118 127.012H274.946C280.222 127.012 284.485 122.748 284.485 117.473C284.485 112.197 280.222 107.933 274.946 107.933H222.118V107.933Z" fill="#3F47FF"/>
<path d="M724.819 234.946C764.169 234.946 796.184 202.931 796.184 163.58V9.5756C796.184 4.29999 791.92 0.0361328 786.645 0.0361328C781.369 0.0361328 777.105 4.29999 777.105 9.5756V163.58C777.105 192.415 753.654 215.867 724.819 215.867C695.984 215.867 672.532 192.415 672.532 163.58V9.5756C672.532 4.29999 668.269 0.0361328 662.993 0.0361328C657.717 0.0361328 653.453 4.29999 653.453 9.5756V163.58C653.453 202.931 685.468 234.946 724.819 234.946" fill="#3F47FF"/>
<path d="M867.766 135.106C867.116 134.275 866.718 133.191 866.718 132.035C866.718 129.289 868.959 127.048 871.705 127.048C906.683 127.012 935.121 98.5384 935.121 63.5603C935.121 28.5823 906.647 -1.52588e-05 871.633 -1.52588e-05H824.839C819.563 -1.52588e-05 815.299 4.26384 815.299 9.53945C815.299 14.8151 819.563 19.0789 824.839 19.0789H871.633C896.132 19.0789 916.042 38.9889 916.042 63.488C916.042 87.9871 896.132 107.897 871.633 107.897H842.075C838.425 107.897 835.101 109.957 833.511 113.245C831.921 116.497 832.319 120.4 834.559 123.29L918.21 231.188C920.089 233.609 922.907 234.873 925.762 234.873C927.822 234.873 929.845 234.223 931.616 232.886C935.771 229.67 936.53 223.672 933.314 219.516L867.839 135.034L867.766 135.106Z" fill="#3F47FF"/>
<path d="M191.403 234.946H286.907C292.182 234.946 296.446 230.682 296.446 225.406C296.446 223.093 295.615 220.998 294.278 219.335C292.507 217.204 289.87 215.867 286.907 215.867H209.362C204.629 215.325 200.979 211.35 200.907 206.508V28.4739C200.943 23.6319 204.629 19.6571 209.362 19.1151H286.907C289.87 19.1151 292.507 17.7781 294.278 15.6462C295.651 13.984 296.446 11.8882 296.446 9.5756C296.446 4.29999 292.182 0.0361328 286.907 0.0361328H191.403C186.128 0.0361328 181.864 4.29999 181.864 9.5756V225.406C181.864 230.682 186.128 234.946 191.403 234.946" fill="#3F47FF"/>
<path d="M634.375 9.5756C634.375 4.29999 630.111 0.0361328 624.835 0.0361328H494.101C488.825 0.0361328 484.562 4.29999 484.562 9.5756C484.562 14.8512 488.825 19.1151 494.101 19.1151H542.304C545.05 19.1151 547.291 21.3554 547.291 24.1016V226.454C547.291 231.151 551.555 234.946 556.83 234.946C562.106 234.946 566.37 231.151 566.37 226.454V24.1016C566.37 21.3554 568.61 19.1151 571.356 19.1151H624.835C630.111 19.1151 634.375 14.8512 634.375 9.5756" fill="#3F47FF"/>
<path d="M455.943 -1.52588e-05C450.667 -1.52588e-05 446.404 4.26384 446.404 9.53945V170.807C446.404 173.553 444.163 175.794 441.417 175.794C439.538 175.794 437.876 174.746 437.045 173.192L340.566 4.84199C338.398 1.08402 334.026 -0.722702 329.834 0.361328C325.643 1.48149 322.752 5.2756 322.752 9.57559V225.406C322.752 230.682 327.016 234.946 332.291 234.946C337.567 234.946 341.831 230.682 341.831 225.406V64.2107C341.831 61.4645 344.071 59.2242 346.853 59.2242C348.696 59.2242 350.286 60.1998 351.153 61.6813L447.704 230.176C449.439 233.211 452.619 234.982 455.979 234.982C456.81 234.982 457.605 234.873 458.436 234.656C462.628 233.536 465.519 229.778 465.519 225.442V9.57559C465.519 4.29997 461.255 0.0361191 455.979 0.0361191" fill="#3F47FF"/>
<path d="M156.245 0.505898C151.258 -1.15628 145.838 1.55379 144.176 6.54033L86.108 181.105C85.4215 183.057 83.5786 184.466 81.3744 184.466C79.7845 184.466 78.3391 183.707 77.4358 182.551C77.1106 182.117 76.8576 181.647 76.677 181.142L18.6091 6.54033C16.9469 1.51766 11.5267 -1.15628 6.5402 0.505898C1.55366 2.16808 -1.15642 7.5521 0.505763 12.5386L72.3408 228.55C73.6417 232.452 77.2913 235.09 81.4106 235.09C85.5299 235.09 89.1795 232.452 90.4442 228.55L162.279 12.5386C163.941 7.5521 161.231 2.13194 156.245 0.469764" fill="#3F47FF"/>
<path d="M997.778 107.933C992.502 107.933 988.238 112.197 988.238 117.473C988.238 122.748 992.502 127.012 997.778 127.012H1050.61C1055.88 127.012 1060.15 122.748 1060.15 117.473C1060.15 112.197 1055.88 107.933 1050.61 107.933H997.778V107.933Z" fill="#3F47FF"/>
<path d="M967.027 234.946H1062.53C1067.81 234.946 1072.07 230.682 1072.07 225.406C1072.07 223.093 1071.24 220.998 1069.9 219.335C1068.17 217.204 1065.49 215.867 1062.53 215.867H984.986C980.253 215.325 976.603 211.35 976.531 206.508V28.4739C976.567 23.6319 980.253 19.6571 984.986 19.1151H1062.53C1065.49 19.1151 1068.13 17.7781 1069.9 15.6462C1071.27 13.984 1072.07 11.8882 1072.07 9.5756C1072.07 4.29999 1067.81 0.0361328 1062.53 0.0361328H967.027C961.752 0.0361328 957.488 4.29999 957.488 9.5756V225.406C957.488 230.682 961.752 234.946 967.027 234.946Z" fill="#3F47FF"/>
<path d="M1995.06 1.21352C1993.56 0.392609 1992.03 0 1990.42 0C1988.82 0 1987.25 0.392609 1985.78 1.21352C1984.32 2.03443 1983.14 3.17656 1982.28 4.7113C1981.43 6.21036 1981 7.78079 1981 9.4583C1981 11.1358 1981.43 12.6706 1982.25 14.1339C1983.07 15.633 1984.25 16.7751 1985.75 17.6317C1987.25 18.4526 1988.82 18.8809 1990.46 18.8809C1992.1 18.8809 1993.67 18.4526 1995.17 17.6317C1996.67 16.8108 1997.81 15.633 1998.67 14.1339C1999.49 12.6349 1999.92 11.0644 1999.92 9.4583C1999.92 7.85217 1999.49 6.24605 1998.63 4.7113C1997.78 3.21225 1996.6 2.03443 1995.13 1.21352" fill="#3F47FF"/>
</g>
<defs>
<clipPath id="clip0_820_424">
<rect width="2000" height="235.054" fill="white"/>
</clipPath>
</defs>
</svg>